<svg width="140" height="140" viewBox="0 0 140 140" fill="none" xmlns="http://www.w3.org/2000/svg">
<rect width="140" height="140" rx="20" fill="#CA9B8C"/>
<path d="M53.5494 36.9448L71.4999 36C77.0425 36 81.5774 37.1652 85.1045 39.4956C88.6316 41.8261 90.3952 45.0068 90.3952 49.0378C90.3952 54.6434 88.8836 59.2097 85.8603 62.7368C82.8371 66.264 79.121 68.9408 74.7121 70.7674L90.0173 93.8196C90.6471 94.8274 91.8438 96.1815 93.6074 97.8821C95.434 99.5827 97.0715 100.433 98.5202 100.433H100.221V103.078H86.2382C86.4272 103.078 85.8288 102.134 84.4432 100.244C83.0575 98.3545 82.2702 97.2208 82.0813 96.8429L66.3982 72.6569C65.7683 72.7828 64.5087 72.8458 62.6191 72.8458C60.7296 72.8458 59.218 72.7828 58.0843 72.6569L57.3284 68.8778C58.2102 69.0038 60.0997 69.0668 62.997 69.0668C65.8943 69.0668 68.7916 68.6889 71.6889 67.9331C74.5861 67.1772 77.137 65.7601 79.3415 63.6816C81.5459 61.5401 82.6481 58.8003 82.6481 55.4622C82.6481 46.1405 76.6646 41.4796 64.6976 41.4796L54.872 41.8575V96.087C54.872 97.0318 54.935 97.7561 55.061 98.26C55.187 98.7639 55.5964 99.2678 56.2892 99.7716C56.982 100.213 58.0213 100.433 59.4069 100.433H62.997V103.078H39V100.433H42.0232C43.4089 100.433 44.4481 100.213 45.141 99.7716C45.8338 99.2678 46.2432 98.7639 46.3692 98.26C46.4951 97.7561 46.5581 97.0318 46.5581 96.087V43.936C46.5581 42.4874 46.2432 41.4481 45.6134 40.8183C45.0465 40.1255 43.8498 39.7791 42.0232 39.7791H39V36.9448H53.5494Z" fill="#FDF8F7"/>
</svg>
