<svg width="140" height="140" viewBox="0 0 140 140" fill="none" xmlns="http://www.w3.org/2000/svg">
<path fill-rule="evenodd" clip-rule="evenodd" d="M20 0C8.95431 0 0 8.9543 0 20V120C0 131.046 8.9543 140 20 140H120C131.046 140 140 131.046 140 120V20C140 8.95431 131.046 0 120 0H20ZM71.4999 36L53.5494 36.9448H39V39.7791H42.0232C43.8498 39.7791 45.0465 40.1255 45.6134 40.8183C46.2432 41.4481 46.5581 42.4874 46.5581 43.936V96.0871C46.5581 97.0318 46.4951 97.7561 46.3692 98.26C46.2432 98.7639 45.8338 99.2678 45.141 99.7716C44.4481 100.213 43.4089 100.433 42.0232 100.433H39V103.078H62.997V100.433H59.4069C58.0213 100.433 56.982 100.213 56.2892 99.7716C55.5964 99.2678 55.187 98.7639 55.061 98.26C54.935 97.7561 54.872 97.0318 54.872 96.0871V41.8575L64.6976 41.4796C76.6646 41.4796 82.6481 46.1405 82.6481 55.4622C82.6481 58.8003 81.5459 61.5401 79.3415 63.6816C77.137 65.7601 74.5861 67.1772 71.6889 67.9331C68.7916 68.6889 65.8943 69.0668 62.997 69.0668C60.0997 69.0668 58.2102 69.0038 57.3284 68.8778L58.0843 72.6569C59.218 72.7829 60.7296 72.8458 62.6191 72.8458C64.5087 72.8458 65.7683 72.7829 66.3982 72.6569L82.0813 96.8429C82.2702 97.2208 83.0575 98.3545 84.4432 100.244C85.8288 102.134 86.4272 103.078 86.2382 103.078H100.221V100.433H98.5202C97.0715 100.433 95.434 99.5827 93.6074 97.8821C91.8438 96.1815 90.6471 94.8274 90.0173 93.8196L74.7121 70.7673C79.121 68.9408 82.8371 66.264 85.8603 62.7368C88.8836 59.2097 90.3952 54.6434 90.3952 49.0378C90.3952 45.0068 88.6317 41.826 85.1045 39.4956C81.5774 37.1652 77.0425 36 71.4999 36Z" fill="#CA9B8C"/>
</svg>
